<svg width="199" height="34" viewBox="0 0 199 34" fill="none" xmlns="http://www.w3.org/2000/svg">
<path d="M92.2733 10.7402C90.0068 10.7402 88.1331 11.4951 86.6523 13.0048C85.2017 14.4843 84.416 16.4167 84.416 18.6812C84.416 21.0363 85.232 22.9385 86.8336 24.418C88.4353 25.8975 90.5205 26.6222 93.0892 26.6222C95.0838 26.6222 97.0481 26.1089 98.8009 25.3238V22.2743C97.1085 23.2405 95.114 23.7538 93.0892 23.7538C90.581 23.7538 88.1935 22.6668 87.6798 19.7682H99.4355C99.5262 19.4964 99.5866 18.7114 99.5866 17.9867C99.5866 16.5374 99.2239 14.7258 97.7129 13.0652C96.3832 11.5555 94.4189 10.7402 92.2733 10.7402ZM92.1826 13.7294C94.1167 13.7294 96.1717 14.907 96.4739 17.2621H87.71C88.1633 14.8466 90.1276 13.7294 92.1826 13.7294Z" fill="white"/>
<path d="M143.756 10.8848C142.185 10.8848 140.311 11.549 139.163 12.7266V11.1867H136.02V26.2836H139.163V18.705C139.163 15.1723 141.369 13.9645 143.938 13.9645C144.089 13.9645 144.3 13.9947 144.512 14.0249V10.9452C144.24 10.915 143.907 10.8848 143.756 10.8848Z" fill="white"/>
<path d="M109.125 18.5245L114.746 11.1572H110.939L105.408 18.5849L111.271 26.2541H114.988L109.065 18.5547L109.125 18.5245Z" fill="white"/>
<path d="M105.291 5.02783H102.148V26.2541H105.291V5.02783Z" fill="white"/>
<path d="M64.4722 15.8269V15.0116H54.6204V18.0008H61.1782V22.4091C59.7276 22.9828 58.1562 23.2847 56.5243 23.2847C54.2578 23.2847 52.3841 22.5299 50.9033 21.0806C49.5132 19.6615 48.7879 17.9102 48.7879 15.6759C48.7879 13.4718 49.483 11.7205 50.9033 10.2712C52.3237 8.85212 54.5298 8.06708 57.3402 8.06708C59.5463 8.06708 61.6617 8.58037 63.4749 9.54657V6.10448C61.5711 5.25906 59.5161 4.80615 57.3402 4.80615C53.7743 4.83635 50.5105 5.95352 48.5462 7.9463C46.4912 9.99948 45.373 12.6263 45.373 15.6759C45.373 18.7255 46.4912 21.3523 48.5462 23.4357C50.6011 25.4889 53.3512 26.5457 56.4941 26.5457C59.365 26.5457 62.0848 25.7304 64.442 24.3113V22.9526V15.8269H64.4722Z" fill="white"/>
<path d="M80.2399 12.9444C78.88 11.5253 76.9761 10.7402 74.8909 10.7402C72.6244 10.7402 70.7508 11.4951 69.27 13.0048C67.8194 14.4843 67.0337 16.4167 67.0337 18.6812C67.0337 21.0363 67.8496 22.9385 69.4513 24.418C69.9348 24.8407 70.4486 25.2333 71.0228 25.5352C72.3524 26.2599 73.9239 26.6222 75.7371 26.6222C77.7316 26.6222 79.6959 26.1089 81.4487 25.3238V22.2743C81.0559 22.4856 80.663 22.697 80.2701 22.8479C78.88 23.4518 77.3086 23.7236 75.7371 23.7236C73.2288 23.7236 70.8414 22.6366 70.3277 19.738H80.2399H82.0531C82.1438 19.4662 82.2042 18.6812 82.2042 17.9566C82.2042 16.5073 81.8416 14.6956 80.3306 13.035C80.3003 13.035 80.2701 13.0048 80.2399 12.9444ZM79.0613 17.2621H70.2975C70.781 14.8768 72.7453 13.7294 74.7701 13.7294C76.7041 13.7294 78.7591 14.907 79.0613 17.2621Z" fill="white"/>
<path d="M167.962 11.1572H164.819V26.2541H167.962V11.1572Z" fill="white"/>
<path d="M166.39 4.57471C165.816 4.57471 165.333 4.75584 164.97 5.1483C164.577 5.54075 164.396 6.02378 164.396 6.59737C164.396 7.17096 164.577 7.65398 164.97 8.04643C165.363 8.43889 165.816 8.62002 166.39 8.62002C166.964 8.62002 167.448 8.43889 167.81 8.04643C168.203 7.65398 168.384 7.17096 168.384 6.59737C168.384 6.02378 168.203 5.54075 167.81 5.1483C167.448 4.75584 166.964 4.57471 166.39 4.57471Z" fill="white"/>
<path d="M199 22.0572C199 21.1212 198.758 20.3965 198.305 19.7927C197.368 18.4641 195.555 17.7999 193.561 17.2866C192.745 17.0752 191.838 16.8639 191.173 16.5015C190.629 16.1694 190.357 15.8373 190.357 15.2334H190.297H190.357C190.357 14.2068 191.627 13.7237 193.168 13.7237C195.011 13.7237 196.764 14.1464 198.305 14.9919V11.8517C196.704 11.1572 194.951 10.7949 193.168 10.7949C191.566 10.7949 189.904 11.1572 188.816 12.0027C187.728 12.8481 187.275 13.9653 187.275 15.3844C187.275 18.3132 189.813 19.4303 192.714 20.155C193.53 20.3664 194.437 20.5777 195.102 20.94C195.646 21.2722 195.918 21.6043 195.918 22.2082C195.918 23.265 194.8 23.7783 192.956 23.7783C190.992 23.7783 189.149 23.4461 187.486 22.8422V25.771C189.209 26.3447 191.052 26.6769 192.956 26.6769C194.679 26.6769 196.22 26.2541 197.399 25.4389C197.791 25.1672 198.094 24.835 198.335 24.5029C198.789 23.8084 199 22.9932 199 22.0572Z" fill="white"/>
<path d="M130.528 15.1428C131.918 14.086 132.583 12.7877 132.583 11.0063C132.583 9.34562 131.918 7.86613 130.739 6.74896C129.561 5.63179 127.778 5.05811 126.085 5.05811H117.14V26.2541H126.841C128.624 26.2541 130.377 25.6805 131.616 24.5331C132.824 23.4159 133.459 21.9062 133.459 20.1852C133.459 18.0716 132.401 16.1392 130.528 15.1428ZM120.374 7.95671H126.418C128.11 7.95671 129.379 9.28524 129.379 10.9761C129.379 12.6971 128.08 13.9955 126.418 13.9955H120.374V7.95671ZM126.992 23.3857H120.374V16.8639H126.992C128.745 16.8639 130.135 18.283 130.135 20.1248C130.135 21.9364 128.745 23.3857 126.992 23.3857Z" fill="white"/>
<path d="M178.263 13.6628C179.714 13.6628 180.65 14.1761 181.225 14.9611C181.799 15.7461 181.92 16.7425 181.92 17.5578V26.2536H185.062V17.437C185.062 15.5952 184.609 14.0251 183.551 12.8173C183.521 12.7871 183.521 12.7871 183.491 12.757C182.433 11.5794 181.013 10.7642 179.079 10.7642C177.235 10.7642 175.724 11.4284 174.637 12.304V11.1567H171.494V26.2536H174.637V17.5578C174.637 16.7425 174.848 15.8367 175.422 15.0819C175.694 14.7497 175.966 14.4478 176.329 14.2364C176.843 13.8741 177.477 13.6628 178.263 13.6628Z" fill="white"/>
<path d="M158.145 12.606C156.815 11.368 154.941 10.7642 153.068 10.7642C150.892 10.7642 149.048 11.519 147.507 13.0589C147.084 13.4816 146.721 13.9043 146.419 14.3874C146.359 14.478 146.298 14.5988 146.238 14.6894C145.543 15.8669 145.21 17.2256 145.21 18.7051C145.21 20.9093 145.966 22.8115 147.507 24.3514C149.048 25.8913 150.892 26.6461 153.068 26.6461C154.972 26.6461 156.845 26.0422 158.145 24.7741V26.2536H161.288V11.1567H158.145V12.606ZM156.724 22.2982C155.787 23.2342 154.609 23.6871 153.219 23.6871C151.829 23.6871 150.65 23.2342 149.713 22.2982C148.776 21.332 148.323 20.1544 148.323 18.7353C148.323 17.3162 148.776 16.1387 149.713 15.2026C150.65 14.2364 151.829 13.7835 153.219 13.7835C154.609 13.7835 155.787 14.2364 156.724 15.2026C157.661 16.1387 158.114 17.3162 158.114 18.7353C158.114 20.1544 157.661 21.332 156.724 22.2982Z" fill="white"/>
<path d="M20.2691 3.43271C19.6816 4.23317 19.2835 5.5242 19.2835 7.36667V9.74313C19.2835 10.5152 19.5465 11.2642 20.0292 11.8671L22.3447 14.7589C22.4561 14.7421 22.5703 14.7333 22.6865 14.7333C23.9394 14.7333 24.9551 15.7482 24.9551 17C24.9551 18.2518 23.9394 19.2667 22.6865 19.2667C21.4335 19.2667 20.4178 18.2518 20.4178 17C20.4178 16.7088 20.4728 16.4304 20.5729 16.1746L18.2577 13.2831C17.4532 12.2783 17.0149 11.0299 17.0149 9.74313V7.36667C17.0149 5.24247 17.4675 3.41683 18.4397 2.09229C19.4448 0.722804 20.9274 0 22.6865 0C25.532 0 27.9674 1.74405 28.9846 4.21869C31.5728 4.97834 33.4625 7.36769 33.4625 10.2C33.4625 10.7724 33.4508 11.3838 33.2826 11.9921C35.0763 12.9436 36.2983 14.8283 36.2983 17C36.2983 19.1718 35.0762 21.0565 33.2824 22.008C33.4506 22.6162 33.4624 23.2275 33.4624 23.7998C33.4624 26.6321 31.5727 29.0214 28.9844 29.7811C27.9672 32.2557 25.5319 33.9998 22.6863 33.9998C21.9453 33.9998 21.2299 33.8811 20.5593 33.6608L21.2678 31.5075C21.7126 31.6536 22.189 31.7331 22.6863 31.7331C24.7394 31.7331 26.4767 30.3698 27.0353 28.4973L27.2352 27.8274L27.924 27.7051C29.7825 27.3752 31.1937 25.751 31.1937 23.7998C31.1937 22.8145 31.1173 22.4542 30.843 22.1212C30.4684 21.6663 29.9632 21.4959 29.4149 21.5543C28.8402 21.6156 28.2422 21.9335 27.8344 22.4428L26.5014 24.1076C26.6016 24.3635 26.6566 24.642 26.6566 24.9333C26.6566 26.1852 25.6409 27.2 24.388 27.2C23.135 27.2 22.1193 26.1852 22.1193 24.9333C22.1193 23.6815 23.135 22.6667 24.388 22.6667C24.504 22.6667 24.6181 22.6754 24.7294 22.6922L26.0629 21.0268C26.8382 20.0585 27.9814 19.4276 29.1742 19.3004C30.1528 19.1961 31.176 19.4343 32.014 20.1059C33.2023 19.5753 34.0297 18.3831 34.0297 17C34.0297 15.6168 33.2022 14.4247 32.014 13.894C31.1759 14.5656 30.1527 14.8037 29.1741 14.6993C27.9814 14.5721 26.8384 13.9412 26.0631 12.973L24.7298 11.3078C24.6183 11.3246 24.5041 11.3333 24.388 11.3333C23.135 11.3333 22.1193 10.3185 22.1193 9.06667C22.1193 7.81482 23.135 6.8 24.388 6.8C25.6409 6.8 26.6566 7.81482 26.6566 9.06667C26.6566 9.35789 26.6016 9.63629 26.5015 9.89207L27.8346 11.557C28.2424 12.0663 28.8404 12.3842 29.415 12.4455C29.9632 12.5039 30.4684 12.3336 30.8431 11.8787C31.1174 11.5457 31.1939 11.1854 31.1939 10.2C31.1939 8.24877 29.7827 6.62454 27.9242 6.29467L27.2353 6.17241L27.0355 5.50253C26.4769 3.63001 24.7396 2.26667 22.6865 2.26667C21.6097 2.26667 20.8236 2.6772 20.2691 3.43271Z" fill="white"/>
<path d="M9.79686 24.1079C9.69672 24.3637 9.64175 24.6421 9.64175 24.9333C9.64175 26.1852 10.6575 27.2 11.9104 27.2C13.1633 27.2 14.179 26.1852 14.179 24.9333C14.179 23.6815 13.1633 22.6667 11.9104 22.6667C11.7942 22.6667 11.6801 22.6754 11.5686 22.6922L10.2353 21.027C9.45998 20.0588 8.31691 19.4279 7.1242 19.3007C6.14563 19.1963 5.12243 19.4344 4.28439 20.106C3.0961 19.5753 2.26865 18.3832 2.26865 17C2.26865 15.6169 3.09607 14.4247 4.28432 13.8941C5.12234 14.5657 6.14558 14.8039 7.12419 14.6996C8.31696 14.5724 9.46012 13.9415 10.2354 12.9732L11.5689 11.3078C11.6803 11.3246 11.7943 11.3333 11.9104 11.3333C13.1633 11.3333 14.179 10.3185 14.179 9.06667C14.179 7.81482 13.1633 6.8 11.9104 6.8C10.6575 6.8 9.64175 7.81482 9.64175 9.06667C9.64175 9.358 9.69676 9.6365 9.79697 9.89236L8.46393 11.5572C8.05614 12.0665 7.4581 12.3844 6.88348 12.4457C6.33519 12.5041 5.82996 12.3337 5.45531 11.8788C5.18109 11.5458 5.10464 11.1855 5.10464 10.2002C5.10464 8.24899 6.51586 6.62475 8.37435 6.29489L9.06318 6.17263L9.26301 5.50274C9.8216 3.63023 11.559 2.26688 13.6121 2.26688C14.1093 2.26688 14.5857 2.34639 15.0306 2.4925L15.7391 0.339212C15.0684 0.118928 14.353 0.000216166 13.6121 0.000216166C10.7665 0.000216166 8.33113 1.74426 7.31397 4.2189C4.72569 4.97855 2.83599 7.36791 2.83599 10.2002C2.83599 10.7725 2.84777 11.3838 3.0159 11.992C1.22211 12.9435 0 14.8282 0 17C0 19.1717 1.22206 21.0564 3.01579 22.0079C2.84759 22.6162 2.83581 23.2276 2.83581 23.8C2.83581 26.6323 4.72551 29.0217 7.31378 29.7813C8.33094 32.256 10.7663 34 13.6119 34C15.371 34 16.8535 33.2772 17.8587 31.9077C18.8309 30.5832 19.2835 28.7575 19.2835 26.6333V24.2569C19.2835 22.9701 18.8452 21.7217 18.0407 20.7169L15.7254 17.8254C15.8256 17.5696 15.8805 17.2912 15.8805 17C15.8805 15.7482 14.8648 14.7333 13.6119 14.7333C12.3589 14.7333 11.3432 15.7482 11.3432 17C11.3432 18.2518 12.3589 19.2667 13.6119 19.2667C13.7281 19.2667 13.8422 19.2579 13.9537 19.2411L16.2692 22.1329C16.7519 22.7358 17.0149 23.4848 17.0149 24.2569V26.6333C17.0149 28.4758 16.6167 29.7668 16.0292 30.5673C15.4747 31.3228 14.6886 31.7333 13.6119 31.7333C11.5588 31.7333 9.82141 30.37 9.26283 28.4975L9.063 27.8276L8.37417 27.7053C6.51568 27.3755 5.10445 25.7512 5.10445 23.8C5.10445 22.8146 5.18091 22.4543 5.45522 22.1213C5.82991 21.6664 6.33514 21.4961 6.88339 21.5545C7.45798 21.6158 8.05598 21.9337 8.46375 22.443L9.79686 24.1079Z" fill="white"/>
</svg>
